<?xml version="1.0" encoding="UTF-8" standalone="no"?>
<!-- Created with Inkscape (http://www.inkscape.org/) -->
<svg version="1.1" id="svg1733" xml:space="preserve" width="40" height="40" viewBox="0 0 1066.6667 1066.6667" sodipodi:docname="dragon-color-pubicdomainvectors.org.svg" inkscape:version="1.1.2 (b8e25be833, 2022-02-05)" xmlns:inkscape="http://www.inkscape.org/namespaces/inkscape" xmlns:sodipodi="http://sodipodi.sourceforge.net/DTD/sodipodi-0.dtd" xmlns="http://www.w3.org/2000/svg" xmlns:svg="http://www.w3.org/2000/svg"><defs id="defs1737"><clipPath clipPathUnits="userSpaceOnUse" id="clipPath1747"><path d="M 0,800 H 800 V 0 H 0 Z" id="path1745"/></clipPath></defs><sodipodi:namedview id="namedview1735" pagecolor="#ffffff" bordercolor="#666666" borderopacity="1.0" inkscape:pageshadow="2" inkscape:pageopacity="0.0" inkscape:pagecheckerboard="0" showgrid="false" inkscape:zoom="0.77906244" inkscape:cx="533.33337" inkscape:cy="533.33337" inkscape:window-width="1920" inkscape:window-height="1018" inkscape:window-x="-8" inkscape:window-y="-8" inkscape:window-maximized="1" inkscape:current-layer="g1739"/><g id="g1739" inkscape:groupmode="layer" inkscape:label="dragon-color-pubicdomainvectors.org" transform="matrix(1.3333333,0,0,-1.3333333,0,1066.6667)"><g id="g1741"><g id="g1743" clip-path="url(#clipPath1747)"><path d="m 697.809,242.6 c 1.183,8.103 1.927,16.133 2.195,24.08 l -63.709,-88.003 c 28.66,7.008 56.211,27.603 61.514,63.923" style="fill:#31bded;fill-opacity:1;fill-rule:nonzero;stroke:none" id="path1749"/><path d="m 700.064,277.588 -99.242,-67.649 6.845,-33.791 c 9.126,-0.656 18.939,0.161 28.628,2.529 l 63.709,88.003 c 0.123,3.654 0.143,7.291 0.06,10.908" style="fill:#8bebdb;fill-opacity:1;fill-rule:nonzero;stroke:none" id="path1751"/><path d="m 671.72,366.301 c -1.234,1.791 -2.486,3.538 -3.753,5.25 l -68.032,-22.31 c 7.057,-5.916 13.523,-12.871 19.294,-21.045 3.548,-5.027 6.791,-10.262 9.437,-15.694 l 70.404,-19.748 c -2.811,25.742 -11.422,50.403 -27.35,73.547" style="fill:#d8f890;fill-opacity:1;fill-rule:nonzero;stroke:none" id="path1753"/><path d="m 700.064,277.588 c -0.119,5.095 -0.446,10.151 -0.994,15.166 l -70.404,19.748 c 6.273,-12.869 9.187,-26.845 4.763,-41.808 -6.318,-21.35 -21.874,-34.085 -41.933,-36.705 l 9.326,-24.05 z" style="fill:#c5f5c1;fill-opacity:1;fill-rule:nonzero;stroke:none" id="path1755"/><path d="m 535.736,441.616 c -2.783,0.62 -5.566,1.17 -8.352,1.644 l 0.323,-1.389 c 2.658,-0.008 5.334,-0.09 8.029,-0.255" style="fill:#ffd100;fill-opacity:1;fill-rule:nonzero;stroke:none" id="path1757"/><path d="m 541.454,426.982 c -3.354,-0.333 -6.689,-0.747 -10.009,-1.215 l 11.639,-50.146 c 11.631,-2.567 22.681,-6.145 32.957,-11.08 l 39.05,51.668 c -21.515,9.929 -45.987,13.517 -73.637,10.773" style="fill:#ffd100;fill-opacity:1;fill-rule:nonzero;stroke:none" id="path1759"/><path d="m 545.227,506.322 c 14.153,1.119 25.662,-1.586 30.673,-17.899 3.085,-10.042 10.388,-17.02 23.071,-14.501 5.697,1.134 11.607,-0.253 15.526,-4.571 5.764,-10.103 -2.632,-19.526 -0.593,-30.908 13.022,13.222 22.031,26.643 25.668,43.356 1.03,4.74 0.889,8.727 -0.265,11.81 L 515.16,515.9 c 7.391,-8.712 18.108,-10.531 30.067,-9.578" style="fill:#ffd100;fill-opacity:1;fill-rule:nonzero;stroke:none" id="path1761"/><path d="m 615.091,416.209 -39.05,-51.668 c 8.536,-4.098 16.537,-9.135 23.894,-15.3 l 68.032,22.31 c -15.142,20.469 -32.709,35.351 -52.876,44.658" style="fill:#f9ed2d;fill-opacity:1;fill-rule:nonzero;stroke:none" id="path1763"/><path d="m 515.16,515.9 124.147,-22.291 c -2.328,6.219 -8.799,8.74 -18.24,6.209 -5.911,-1.586 -11.355,-1.986 -18.118,3.026 -0.72,9.676 -1.599,21.43 -15.386,23.683 -1.393,6.968 0.453,12.888 1.336,18.854 l -75.325,-27.428 c 0.51,-0.724 1.039,-1.407 1.586,-2.053" style="fill:#fd9d00;fill-opacity:1;fill-rule:nonzero;stroke:none" id="path1765"/><path d="m 573.613,560.006 c 3.786,-4.652 2.494,-9.769 3.326,-14.113 -12.48,-8.357 -22.73,-1.8 -32.193,20.817 10.575,-2.459 19.778,-4.598 28.867,-6.704 M 511.48,521.342 c 0.655,-1.217 1.356,-2.343 2.094,-3.389 l 75.325,27.428 c 0.018,0.122 0.039,0.243 0.056,0.364 1.998,14.234 -2.26,25.81 -13.809,34.739 -8.07,6.231 -16.572,11.335 -26.655,13.501 -11.071,2.384 -20.362,7.509 -28.405,14.791 l -9.168,-86.392 c 0.187,-0.349 0.375,-0.697 0.562,-1.042" style="fill:#ff9300;fill-opacity:1;fill-rule:nonzero;stroke:none" id="path1767"/><path d="m 600.822,209.939 -9.326,24.05 c -6.517,-0.851 -13.51,-0.636 -20.814,0.7 -9.68,1.772 -18.844,4.545 -27.618,8.074 l -2.575,-24.09 z" style="fill:#cbf387;fill-opacity:1;fill-rule:nonzero;stroke:none" id="path1769"/><path d="m 540.489,218.673 36.864,-36.063 c 7.249,-2.303 14.752,-4.167 22.55,-5.523 2.516,-0.438 5.112,-0.747 7.764,-0.939 l -6.845,33.791 z" style="fill:#96eaa2;fill-opacity:1;fill-rule:nonzero;stroke:none" id="path1771"/><path d="m 536.292,201.485 c 12.838,-7.765 26.427,-14.223 41.061,-18.875 l -36.864,36.063 z" style="fill:#9ae292;fill-opacity:1;fill-rule:nonzero;stroke:none" id="path1773"/><path d="m 438.035,402.235 -18.597,-29.466 c 6.771,0.454 13.56,1.057 20.359,1.662 29.1,2.586 58.057,8.276 87.676,4.01 5.304,-0.764 10.513,-1.695 15.611,-2.82 l -11.639,50.146 c -31.988,-4.523 -62.459,-14.972 -93.41,-23.532" style="fill:#ffce00;fill-opacity:1;fill-rule:nonzero;stroke:none" id="path1775"/><path d="m 527.707,441.871 -0.323,1.389 c -15.351,2.617 -30.749,2.945 -46.457,0.109 -6.411,-1.158 -12.804,-2.397 -19.202,-3.599 l -8.258,-13.083 c 23.975,8.138 48.234,15.26 74.24,15.184" style="fill:#ffce00;fill-opacity:1;fill-rule:nonzero;stroke:none" id="path1777"/><path d="m 469.737,235.622 c -21.965,22.562 -45.501,42.787 -70.589,60.576 l -6.072,-23.467 c 27.391,-8.046 53.455,-19.175 76.661,-37.109" style="fill:#f0d03c;fill-opacity:1;fill-rule:nonzero;stroke:none" id="path1779"/><path d="m 504.379,263.958 c -7.322,4.975 -14.464,10.286 -21.52,15.746 -23.777,18.395 -48.992,33.9 -76.15,45.712 l -2.675,-10.335 c 3.776,-2.655 7.426,-5.458 10.9,-8.449 23.664,-20.364 45.694,-42.621 68.545,-63.934 8.644,-8.066 17.47,-15.797 26.611,-22.969 l 30.399,-1.056 z" style="fill:#f0d03c;fill-opacity:1;fill-rule:nonzero;stroke:none" id="path1781"/><path d="m 403.539,223.43 64.555,-2.242 c -26.379,11.362 -52.661,22.982 -80.358,30.907 l -7.131,-27.557 c 7.652,-0.178 15.297,-0.536 22.934,-1.108" style="fill:#f0d03c;fill-opacity:1;fill-rule:nonzero;stroke:none" id="path1783"/><path d="m 543.064,242.763 c -13.706,5.512 -26.449,12.88 -38.685,21.195 l 36.11,-45.285 z" style="fill:#f6e63a;fill-opacity:1;fill-rule:nonzero;stroke:none" id="path1785"/><path d="m 464.342,607.188 c -0.969,0.755 -1.985,1.475 -3.068,2.144 -12.554,7.752 -25.682,13.51 -39.188,17.071 l -22.508,-27.072 z" style="fill:#fb6800;fill-opacity:1;fill-rule:nonzero;stroke:none" id="path1787"/><path d="m 458.636,657.698 c 10.846,-15.401 20.508,-31.197 28.108,-47.793 l 28.676,3.479 c -0.889,0.955 -1.762,1.935 -2.62,2.945 -16.612,19.53 -34.404,38.16 -50.734,58.162 l -8.173,-9.83 c 1.55,-2.339 3.126,-4.663 4.743,-6.963" style="fill:#fb6800;fill-opacity:1;fill-rule:nonzero;stroke:none" id="path1789"/><path d="m 455.676,215.771 c 16.781,-3.82 33.513,-7.843 50.273,-11.783 -0.573,0.86 -1.04,1.993 -1.833,2.299 -12.121,4.668 -24.082,9.757 -36.022,14.901 l -64.555,2.242 c 17.431,-1.305 34.817,-3.723 52.137,-7.659" style="fill:#c7df6f;fill-opacity:1;fill-rule:nonzero;stroke:none" id="path1791"/><path d="m 510.09,219.729 c 8.431,-6.617 17.129,-12.756 26.202,-18.244 l 4.197,17.188 z" style="fill:#c7df6f;fill-opacity:1;fill-rule:nonzero;stroke:none" id="path1793"/><path d="m 413.335,413.188 c 13.458,4.099 26.751,8.957 40.132,13.499 l 8.258,13.083 c -19.344,-3.635 -38.733,-6.928 -58.793,-6.597 -12.447,0.204 -24.077,3.018 -34.203,8.075 l 23.153,-32.367 c 7.14,0.713 14.322,2.133 21.453,4.307" style="fill:#feb200;fill-opacity:1;fill-rule:nonzero;stroke:none" id="path1795"/><path d="m 413.201,395.955 c -3.525,-0.786 -7.074,-1.457 -10.634,-2.009 l 15.226,-21.283 c 0.548,0.034 1.096,0.068 1.645,0.106 l 18.597,29.466 c -8.231,-2.276 -16.496,-4.42 -24.834,-6.28" style="fill:#feb200;fill-opacity:1;fill-rule:nonzero;stroke:none" id="path1797"/><path d="m 420.039,730.322 c 9.143,-23.013 20.217,-45.087 33.854,-65.661 l 8.173,9.83 c -16.557,20.28 -31.611,41.969 -42.408,67.439 -2.426,-5.984 -0.732,-8.803 0.381,-11.608" style="fill:#f35c00;fill-opacity:1;fill-rule:nonzero;stroke:none" id="path1799"/><path d="m 422.086,626.403 c -8.545,2.254 -17.242,3.627 -26.043,4.07 l 3.535,-31.142 z" style="fill:#f35c00;fill-opacity:1;fill-rule:nonzero;stroke:none" id="path1801"/><path d="m 393.718,650.954 c 9.825,-0.806 19.737,-3.466 30.178,-8.409 -7.501,11.362 -19.375,22.058 -32.708,30.695 z" style="fill:#f35c00;fill-opacity:1;fill-rule:nonzero;stroke:none" id="path1803"/><path d="m 489.576,532.235 c -1.451,12.236 -2.83,24.496 -5.991,36.281 -3.728,13.896 -7.349,29.388 -19.243,38.672 l -64.764,-7.857 z" style="fill:#ff8500;fill-opacity:1;fill-rule:nonzero;stroke:none" id="path1805"/><path d="m 503.949,541.587 c 0.31,-6.501 3.715,-13.162 6.969,-19.203 l 9.168,86.392 c -1.603,1.453 -3.157,2.99 -4.666,4.608 l -28.676,-3.479 c 9.703,-21.188 16.047,-43.68 17.205,-68.318" style="fill:#ff8500;fill-opacity:1;fill-rule:nonzero;stroke:none" id="path1807"/><path d="m 386.114,568.695 c 17.276,3.287 35.538,1.327 51.783,-6.263 22.517,-10.522 37.512,-28.588 50.999,-48.42 2.052,1.439 2.606,3.345 2.327,5.292 -0.614,4.292 -1.135,8.61 -1.647,12.931 l -89.998,67.096 z" style="fill:#fe9400;fill-opacity:1;fill-rule:nonzero;stroke:none" id="path1809"/><path d="m 340.165,693.243 c 15.9,-11.161 33.02,-20.258 26.322,-44.454 9.233,2.078 18.196,2.905 27.231,2.165 l -2.53,22.286 c -16.615,10.765 -35.499,18.332 -51.023,20.003" style="fill:#f04f00;fill-opacity:1;fill-rule:nonzero;stroke:none" id="path1811"/><path d="m 396.043,630.473 c -11.252,0.565 -22.673,-0.392 -34.161,-2.982 l 37.696,-28.16 z" style="fill:#f04f00;fill-opacity:1;fill-rule:nonzero;stroke:none" id="path1813"/><path d="m 297.183,618.422 c 7.624,3.992 11.329,10.582 17.606,14.42 6.744,4.132 14.154,5.039 23.197,7.73 -23.503,14.488 -54.823,17.419 -82.078,8.237 9.215,-2.279 18.152,-3.038 25.628,-8.176 7.75,-5.338 11.795,-13.522 15.647,-22.211" style="fill:#f64e00;fill-opacity:1;fill-rule:nonzero;stroke:none" id="path1815"/><path d="m 308.509,599.549 91.069,-0.218 -37.696,28.16 c -1.072,-0.241 -2.144,-0.496 -3.218,-0.766 -20.528,-5.167 -37.226,-14.752 -50.155,-27.176" style="fill:#f64e00;fill-opacity:1;fill-rule:nonzero;stroke:none" id="path1817"/><path d="m 380.605,224.538 7.131,27.557 c -5.2,1.488 -10.448,2.851 -15.757,4.051 -5.748,1.301 -11.493,2.585 -17.241,3.84 l 25.558,-35.439 c 0.103,-0.003 0.206,-0.007 0.309,-0.009" style="fill:#fb9b00;fill-opacity:1;fill-rule:nonzero;stroke:none" id="path1819"/><path d="m 368.907,279.057 c 8.143,-1.909 16.211,-3.988 24.169,-6.326 l 6.072,23.467 c -34.87,24.727 -72.746,44.728 -113.585,59.707 l 50.474,-69.987 c 10.992,-2.036 21.95,-4.302 32.87,-6.861" style="fill:#fb9b00;fill-opacity:1;fill-rule:nonzero;stroke:none" id="path1821"/><path d="m 356.059,342.411 c 5.604,-3.086 11.108,-6.351 16.826,-9.21 10.756,-5.387 21.382,-11.249 31.149,-18.12 l 2.675,10.335 c -16.161,7.029 -33.008,12.752 -50.65,16.995" style="fill:#fb9b00;fill-opacity:1;fill-rule:nonzero;stroke:none" id="path1823"/><path d="m 305.256,417.695 -4.22,-6.082 c 14.841,-17.514 34.578,-28.761 58.082,-34.969 19.403,-5.117 38.979,-5.23 58.675,-3.981 l -15.226,21.283 c -35.122,-5.444 -71.37,0.779 -97.311,23.749" style="fill:#ffa300;fill-opacity:1;fill-rule:nonzero;stroke:none" id="path1825"/><path d="m 391.882,408.881 -23.153,32.367 c -12.006,5.993 -21.896,15.139 -28.525,26.819 l -25.629,-36.939 c 21.24,-16.725 48.943,-25.077 77.307,-22.247" style="fill:#ffa300;fill-opacity:1;fill-rule:nonzero;stroke:none" id="path1827"/><path d="m 264.277,576.732 c 3.218,5.732 8.316,9.836 12.208,15.207 -9.598,2.471 -21.174,0.648 -32.298,-4.457 l 17.514,-19.633 c 0.482,3.143 1.033,6.126 2.576,8.883" style="fill:#fd7700;fill-opacity:1;fill-rule:nonzero;stroke:none" id="path1829"/><path d="M 308.509,599.549 C 293.816,585.43 283.998,567.642 278.967,548.494 l 53.69,-60.186 c -0.247,1.2 -0.47,2.415 -0.662,3.646 -3.265,20.979 -3.758,41.73 14.661,57.763 11.301,9.836 25.035,16.235 39.458,18.978 l 13.464,30.636 z" style="fill:#fd7700;fill-opacity:1;fill-rule:nonzero;stroke:none" id="path1831"/><path d="m 372.109,224.66 c 2.73,-0.017 5.459,-0.052 8.187,-0.113 l -25.558,35.439 c -39.305,8.579 -78.716,15.731 -119.346,16.539 l -17.609,-43.96 z" style="fill:#f56500;fill-opacity:1;fill-rule:nonzero;stroke:none" id="path1833"/><path d="m 336.037,285.918 -50.474,69.987 c -1.064,0.391 -2.125,0.789 -3.193,1.173 -4.297,1.542 -8.615,3.005 -12.952,4.392 l -25.1,-62.659 c 30.753,-3.409 61.364,-7.271 91.719,-12.893" style="fill:#f56500;fill-opacity:1;fill-rule:nonzero;stroke:none" id="path1835"/><path d="m 242.464,215.177 c 20.573,2.862 41.267,4.701 61.956,6.437 22.582,1.892 45.161,3.192 67.689,3.046 l -154.326,7.905 z" style="fill:#e07000;fill-opacity:1;fill-rule:nonzero;stroke:none" id="path1837"/><path d="m 293.185,430.607 c -1.6,2.066 -2.633,6.057 -6.904,3.785 4.166,-8.548 9.107,-16.115 14.755,-22.779 l 4.22,6.082 c -4.328,3.832 -8.371,8.125 -12.071,12.912" style="fill:#ff8800;fill-opacity:1;fill-rule:nonzero;stroke:none" id="path1839"/><path d="m 314.575,431.128 25.629,36.939 c -1.069,1.883 -2.052,3.832 -2.946,5.844 l -52.146,-5.413 c 6.835,-14.948 17.043,-27.59 29.463,-37.37" style="fill:#ff8800;fill-opacity:1;fill-rule:nonzero;stroke:none" id="path1841"/><path d="m 259.079,556.848 c 1.635,3.81 2.086,7.506 2.622,11.001 l -17.514,19.633 c -3.875,-1.778 -7.696,-3.953 -11.358,-6.484 l -0.272,-11.727 c 9.835,1.316 18.871,-1.096 26.522,-12.423" style="fill:#fd7400;fill-opacity:1;fill-rule:nonzero;stroke:none" id="path1843"/><path d="m 279.697,483.259 c 1.446,-5.138 3.266,-10.062 5.415,-14.761 l 52.146,5.413 c -1.997,4.493 -3.55,9.301 -4.601,14.397 l -53.69,60.186 c -5.551,-21.126 -5.276,-43.904 0.73,-65.235" style="fill:#fd7400;fill-opacity:1;fill-rule:nonzero;stroke:none" id="path1845"/><path d="m 231.102,506.531 -0.279,-12.043 c 9.159,5.244 19.14,5.643 30.562,-0.668 -1.386,12.035 -2.586,22.485 -3.799,33.04 -8.778,-2.969 -18.886,-11.079 -26.484,-20.329" style="fill:#fd7400;fill-opacity:1;fill-rule:nonzero;stroke:none" id="path1847"/><path d="m 218.78,211.364 c 7.871,1.459 15.769,2.712 23.684,3.813 l -24.681,17.388 z" style="fill:#d54200;fill-opacity:1;fill-rule:nonzero;stroke:none" id="path1849"/><path d="m 232.829,580.998 c -6.466,-4.471 -12.44,-10.049 -17.358,-16.5 5.876,2.15 11.605,4.041 17.086,4.773 z" style="fill:#fa6200;fill-opacity:1;fill-rule:nonzero;stroke:none" id="path1851"/><path d="m 219.909,485.704 c 3.527,3.663 7.152,6.63 10.914,8.784 l 0.279,12.043 c -5.634,-6.858 -9.888,-14.343 -11.193,-20.827" style="fill:#fa6200;fill-opacity:1;fill-rule:nonzero;stroke:none" id="path1853"/><path d="m 235.392,276.525 c -0.637,0.013 -1.272,0.031 -1.909,0.04 -12.569,0.186 -25.063,-0.279 -37.525,-1.003 l 21.825,-42.997 z" style="fill:#fc6300;fill-opacity:1;fill-rule:nonzero;stroke:none" id="path1855"/><path d="m 232.744,300.075 c 3.86,-0.416 7.718,-0.837 11.574,-1.264 l 25.1,62.659 c -40.497,12.951 -82.753,19.114 -125.954,17.514 l 0.145,-0.287 c 4.712,-3.064 9.934,-4.649 14.672,-7.159 9.076,-4.805 17.823,-10.775 18.233,-22.184 0.277,-7.712 -4.604,-12.248 -10.162,-15.462 l 16.301,-32.117 c 16.622,0.455 33.302,0.103 50.091,-1.7" style="fill:#fc6300;fill-opacity:1;fill-rule:nonzero;stroke:none" id="path1857"/><path d="m 182.653,301.775 -16.301,32.117 c -2.189,-1.266 -4.483,-2.327 -6.608,-3.296 -7.297,-3.332 -14.574,-6.729 -21.898,-10.016 l -0.048,-21.532 c 14.929,1.253 29.868,2.318 44.855,2.727" style="fill:#f23700;fill-opacity:1;fill-rule:nonzero;stroke:none" id="path1859"/><path d="m 143.181,378.976 c 0.142,-0.096 0.286,-0.186 0.428,-0.279 l -0.145,0.287 c -0.094,-0.004 -0.189,-0.005 -0.283,-0.008" style="fill:#f23700;fill-opacity:1;fill-rule:nonzero;stroke:none" id="path1861"/><path d="m 195.958,275.562 c -16.069,-0.935 -32.086,-2.301 -48.152,-3.261 -3.368,-0.203 -6.722,-0.623 -10.07,-1.16 l -0.02,-9.19 c 1.822,-0.257 3.631,-0.549 5.425,-0.913 12.174,-2.466 25.679,-6.53 29.487,-19.405 3.162,-10.68 -3.742,-18.558 -11.649,-24.816 l 56.804,15.748 z" style="fill:#f23700;fill-opacity:1;fill-rule:nonzero;stroke:none" id="path1863"/><path d="m 212.405,210.139 c 2.123,0.425 4.248,0.831 6.375,1.225 l -0.997,21.201 -56.804,-15.748 c -1.527,-1.208 -3.091,-2.357 -4.627,-3.453 -4.468,-3.184 -9.041,-6.222 -13.664,-9.191 l 9.685,-11.738 c 19.483,7.336 39.372,13.569 60.032,17.704" style="fill:#db2f00;fill-opacity:1;fill-rule:nonzero;stroke:none" id="path1865"/><path d="m 152.373,192.435 -9.685,11.738 c -2.344,-1.506 -4.701,-2.994 -7.064,-4.473 l -2.791,-15.005 c 6.477,2.68 12.985,5.272 19.54,7.74" style="fill:#ca1500;fill-opacity:1;fill-rule:nonzero;stroke:none" id="path1867"/><path d="m 85.318,163.853 c 15.784,7.102 31.553,14.237 47.515,20.842 l 2.791,15.005 c -6.083,-3.807 -12.206,-7.558 -18.249,-11.418 -12.714,-8.131 -25.406,-16.287 -38.73,-24.83 3.531,-1.999 4.978,-0.359 6.673,0.401" style="fill:#c80b00;fill-opacity:1;fill-rule:nonzero;stroke:none" id="path1869"/><path d="m 53.005,289.479 c 9.047,1.369 18.032,3.462 27.083,4.607 l -3.799,5.532 c -10.987,-2.601 -22.005,-5.732 -34.329,-7.206 4.332,-4.465 7.837,-3.412 11.045,-2.933" style="fill:#e21c00;fill-opacity:1;fill-rule:nonzero;stroke:none" id="path1871"/><path d="m 86.138,294.69 c 17.243,1.221 34.445,2.913 51.66,4.358 l 0.048,21.532 c -17.984,-8.073 -36.25,-15.484 -55.769,-19.651 -1.933,-0.412 -3.86,-0.855 -5.788,-1.311 l 3.799,-5.532 c 2.013,0.254 4.029,0.463 6.05,0.604" style="fill:#f24600;fill-opacity:1;fill-rule:nonzero;stroke:none" id="path1873"/><path d="m 112.907,266.236 c 8.46,-2.728 16.763,-3.152 24.809,-4.285 l 0.02,9.19 c -8.294,-1.332 -16.544,-3.414 -24.829,-4.905" style="fill:#f24600;fill-opacity:1;fill-rule:nonzero;stroke:none" id="path1875"/></g></g></g></svg>